PathFileType	4	(X/Y/Z)	RBDS022\RBDS022runT45.trc
DataRate	CameraRate	NumFrames	NumMarkers	Units	OrigDataRate	OrigDataStartFrame	OrigNumFrames
150.000000	150.000000	4	32	mm	150.000000	3937	4500
Frame#	Time	L.ASIS			L.Heel.Bottom			L.Heel.Lateral			L.Heel.Top			L.Iliac.Crest			L.MT1			L.MT5			L.PSIS			L.Shank.Bottom.Lateral			L.Shank.Bottom.Medial			L.Shank.Top.Lateral			L.Shank.Top.Medial			L.Thigh.Bottom.Lateral			L.Thigh.Bottom.Medial			L.Thigh.Top.Lateral			L.Thigh.Top.Medial			R.ASIS			R.Heel.Bottom			R.Heel.Lateral			R.Heel.Top			R.Iliac.Crest			R.MT1			R.MT5			R.PSIS			R.Shank.Bottom.Lateral			R.Shank.Bottom.Medial			R.Shank.Top.Lateral			R.Shank.Top.Medial			R.Thigh.Bottom.Lateral			R.Thigh.Bottom.Medial			R.Thigh.Top.Lateral			R.Thigh.Top.Medial			
		X1	Y1	Z1	X2	Y2	Z2	X3	Y3	Z3	X4	Y4	Z4	X5	Y5	Z5	X6	Y6	Z6	X7	Y7	Z7	X8	Y8	Z8	X9	Y9	Z9	X10	Y10	Z10	X11	Y11	Z11	X12	Y12	Z12	X13	Y13	Z13	X14	Y14	Z14	X15	Y15	Z15	X16	Y16	Z16	X17	Y17	Z17	X18	Y18	Z18	X19	Y19	Z19	X20	Y20	Z20	X21	Y21	Z21	X22	Y22	Z22	X23	Y23	Z23	X24	Y24	Z24	X25	Y25	Z25	X26	Y26	Z26	X27	Y27	Z27	X28	Y28	Z28	X29	Y29	Z29	X30	Y30	Z30	X31	Y31	Z31	X32	Y32	Z32	

3938	26.24666666666667	2184.642431560738	950.9524517106047	895.3841133962676	1584.753348450428	190.9965055787287	1023.131095282637	1616.68628312277	184.96688499998	974.2933148773309	1622.327251831484	216.625636287924	1020.607644111404	2134.820786986248	1038.297729511759	849.5479473970106	1743.238370519725	47.68495214073003	1038.675627070221	1702.217511749843	65.28323272836654	931.1538282584902	2022.301364171777	1006.047325697534	971.0458729994458	1717.59323070052	254.2819007781989	942.8681341359346	1690.868755416303	282.0421117470598	982.8571843479673	1755.182132308699	322.222854549149	921.4083034060028	1728.689539288065	350.4081250186248	959.1309480059231	1980.893597136718	617.5155640963854	872.5573861219725	1927.322121472496	647.4207613308912	912.0849701234814	2014.710789012552	716.8533400965448	843.8485207751227	1965.444803057517	745.5363582507201	884.2283623816868	2185.543102285265	970.2069094750104	1127.334076946009	2090.187834784437	132.2124566734988	1058.632740019991	2113.647297997794	146.9822732718027	1108.891586302734	2112.880456007123	170.4151831496527	1058.09993470341	2122.34403712361	1044.17722906729	1172.837714961335	2294.159966394328	66.79999418491559	1076.105690939771	2246.112494196838	83.55940163645202	1178.171099125349	2022.562589370578	1004.953763565636	1058.413800114063	2180.502068382638	249.404459457821	1132.364339207906	2155.930733998401	266.9187922484844	1090.684245960004	2207.399220350521	328.6799672635657	1148.035913010686	2176.998037537652	343.854686798227	1107.039359024368	2293.112309740136	642.1826769103407	1167.908162831113	2237.436052785376	608.2171536135901	1139.566663440301	2229.866915372958	730.8819780460141	1187.992153510468	2175.609438061721	696.9877227251667	1163.452007806871	
3939	26.25333333333333	2187.430750254751	953.1277414272496	895.9389771210919	1573.137947618985	209.9611848392844	1021.422007939792	1604.07051161359	200.6490711255423	972.3530662869787	1612.771371640062	232.2587267279672	1018.212212080556	2141.581655421296	1041.159669721319	850.2236811363186	1719.144091213456	53.16038865281671	1036.894397430899	1678.775041686094	73.02898019070292	930.0109733199985	2025.19348139893	1009.583045340536	970.6861569939736	1705.115216540509	264.5037090232432	940.4468200505628	1678.770213958525	291.9228118622903	981.0243847895791	1743.156007829316	332.5131705330938	919.7120530219672	1716.974964869107	360.3953971273872	957.9136920905835	1974.52909120921	625.0524813215103	872.5353067695306	1922.583702743633	656.7764788037554	912.9070866392598	2011.410289913441	723.1832132581153	843.453968060324	1963.874519438082	753.5645871671669	884.8980131381807	2187.077697819189	974.2319478681702	1126.688038352217	2124.136412572193	113.9040568478233	1056.185403926056	2146.035265785302	130.5019980850462	1106.716740109594	2143.256301293392	153.8759445204552	1056.08888462652	2124.531951158219	1049.649430264993	1172.78755502113	2332.695646776818	67.0643958857395	1074.243842103857	2283.215953082646	78.99866482242105	1176.279347612455	2024.764275063976	1008.794985805863	1058.344614747336	2203.429150967586	238.976678729728	1130.795646237966	2178.033897714426	254.5777811931445	1088.82571488416	2223.81989163902	319.9814637041302	1147.117426522952	2192.915753840174	332.7981151537022	1105.756627319124	2291.62864802785	642.984611846342	1167.346764016874	2235.253411125444	609.5124118436302	1139.677529682063	2229.609517158988	732.4275082216019	1187.566218504511	2174.8112878797	699.2517661691704	1163.306401668697	
3940	26.26	2189.830858010073	955.1393068450088	896.3846225179346	1562.79682148625	229.2691572014294	1019.711301117959	1592.513587667244	216.9490296865953	970.4161886478666	1604.234625006803	248.1632982019653	1015.911865982492	2147.676819011775	1044.091008818028	851.0783819199827	1695.838539247831	60.07378184269141	1034.996835298941	1656.219862893112	82.35716586918613	928.7910917174812	2027.810919169678	1012.978955726417	970.4502282373199	1693.805057380992	274.846772829302	938.0861969075949	1667.841950092713	302.1345842340847	979.0987362233597	1732.60901010708	342.6713926947281	918.0105064940775	1706.818456078615	370.424426408248	956.5861209421482	1969.727938998908	631.6109388334897	872.6523185771525	1919.146561829664	664.7734921402322	913.6709387245575	2009.06372695952	728.6833276233639	843.1742334819872	1962.996333275623	760.4216817277912	885.5237174661852	2188.447983954931	977.6501594724349	1125.9801965714	2157.886183051201	97.73388619262579	1053.839163920849	2178.350706358624	115.8007194331147	1104.597857614329	2173.280075238375	139.1114111580361	1054.287884324347	2126.343976403468	1054.394394870646	1172.70501031182	2369.217222827956	69.84284203329975	1071.474382614872	2319.403420305258	76.3844522581973	1173.666548219447	2026.891580657779	1012.354788356612	1058.381412152353	2225.760007533122	229.6233373378379	1129.268963769924	2199.62032275927	243.4092964375349	1087.077418217729	2239.726841676968	311.7723821083441	1146.256118064181	2208.42102843658	322.3454811625118	1104.641762049202	2289.438004273427	642.6864022539742	1167.270565623133	2232.450170241852	609.9249089841619	1139.935339381662	2228.847785946639	733.0165636035467	1187.485833252668	2173.512499207184	700.6904207344077	1163.346430007897	
3941	26.26666666666667	2191.828526141303	956.9441689733547	896.7302779698562	1553.475426899285	248.8242034329688	1018.061733529828	1581.827317123005	233.8337307369113	968.5536091325727	1596.430213391272	264.3318018496406	1013.796536957605	2152.947188390136	1047.069528859566	852.0747197372292	1673.377372015897	68.55236812458497	1033.039921886335	1634.664306722601	93.34736225981356	927.5046361363704	2030.11031947539	1016.180958152295	970.3276438286377	1683.534948523685	285.3804642760324	935.8794583682903	1658.018381541225	312.803287282393	977.1642676794545	1723.499745184165	352.6671712030957	916.3677621596813	1698.230398332783	380.521595659163	955.1946841300488	1966.592707697262	636.8824807800056	872.8799363993538	1917.028612794616	671.0859873472683	914.3006155630877	2007.762729803617	733.1079542351168	843.0384287909245	1962.779825357361	765.8407909110866	886.0367049322638	2189.614530304522	980.4264127528938	1125.278284516407	2190.827554868984	83.75430657934469	1051.618985728413	2210.053075568176	102.9312070821177	1102.556571673804	2202.405349380384	126.174902855957	1052.745079452993	2127.69187997529	1058.310385559753	1172.602157219646	2403.183895419736	74.95088140023425	1067.793542097456	2354.199559979976	75.61591243710154	1170.312691070307	2028.872016731018	1015.569762368671	1058.512726336459	2247.104052372209	221.4196962240541	1127.800509566695	2220.285422749123	233.501919139546	1085.448493867381	2254.838718867763	304.1812962880292	1145.437688364494	2223.198879347764	312.6414188650958	1103.676907176271	2286.635294600404	641.4248688368909	1167.675662712577	2229.167203337885	609.5894358110528	1140.270628088174	2227.585081084139	732.7309359136301	1187.792162777042	2171.775871620274	701.3702534187311	1163.533488051866	
